<?xml version="1.0" standalone="no"?><!DOCTYPE svg PUBLIC "-//W3C//DTD SVG 1.1//EN" "http://www.w3.org/Graphics/SVG/1.1/DTD/svg11.dtd"><svg t="1715927784786" class="icon" viewBox="0 0 1136 1024" version="1.1" xmlns="http://www.w3.org/2000/svg" p-id="14720" xmlns:xlink="http://www.w3.org/1999/xlink" width="221.875" height="200"><path d="M1109.1875 874.85c0 33.5875-8.5375 50.6125-25.3625 50.6125h-101.25v48.2125c-0.1375 6.3375-2.6375 20.825-23.0125 20.825H177.2c-20.375 0-22.9-14.55-23.025-20.6875v-48.35h-101.25c-16.8 0-25.3625-17.025-25.3625-50.6125V248.9c0-25.75 8.75-29.9125 29.9375-29.9125h79.225v640.675H1000.125V218.9875h79.2375c21.0875 0 29.8875 4.1625 29.8875 29.9125z m0 0" fill="#68cc6a" p-id="14721"></path><path d="M776.425 106.875H360.7375c-80.925 0-117.175 43.4-117.175 86.425v560.1875h650.1V193.3c0-43-36.35-86.425-117.2375-86.425z m-265.8 495L346.5875 436.275l61.675-61.6625 102.4125 102.4375 218.4875-218.5125 61.375 63.4125z" fill="#68cc6a" p-id="14722"></path></svg>