<svg height="1024" node-id="1" sillyvg="true" template-height="1024" template-width="1024" version="1.1" viewBox="0 0 1024 1024" width="1024" xmlns="http://www.w3.org/2000/svg" xmlns:xlink="http://www.w3.org/1999/xlink"><defs node-id="46"><linearGradient gradientUnits="userSpaceOnUse" id="未命名的渐变_59" node-id="5" spreadMethod="pad" x1="759.27" x2="859.08" y1="763.42" y2="736.33"><stop offset="0" stop-color="#35a2e6"/><stop offset="1" stop-color="#2256bd"/></linearGradient><linearGradient gradientUnits="userSpaceOnUse" id="未命名的渐变_59-2" node-id="8" spreadMethod="pad" x1="380.15" x2="767.29" y1="740.97" y2="385.91"><stop offset="0" stop-color="#35a2e6"/><stop offset="1" stop-color="#2256bd"/></linearGradient><linearGradient gradientUnits="userSpaceOnUse" id="未命名的渐变_59-3" node-id="9" spreadMethod="pad" x1="601.07" x2="732.15" y1="492.12" y2="492.12"><stop offset="0" stop-color="#35a2e6"/><stop offset="1" stop-color="#2256bd"/></linearGradient><linearGradient gradientUnits="userSpaceOnUse" id="未命名的渐变_59-4" node-id="10" spreadMethod="pad" x1="451.9" x2="582.75" y1="673.71" y2="673.71"><stop offset="0" stop-color="#35a2e6"/><stop offset="1" stop-color="#2256bd"/></linearGradient><linearGradient gradientUnits="userSpaceOnUse" id="未命名的渐变_46" node-id="11" spreadMethod="pad" x1="575.29" x2="682.24" y1="549.57" y2="405.55"><stop offset="0" stop-color="#5496e8"/><stop offset="1" stop-color="#3462bf"/></linearGradient><linearGradient gradientUnits="userSpaceOnUse" id="未命名的渐变_46-2" node-id="14" spreadMethod="pad" x1="435.21" x2="507.94" y1="747.34" y2="591.92"><stop offset="0" stop-color="#5496e8"/><stop offset="1" stop-color="#3462bf"/></linearGradient><linearGradient gradientUnits="userSpaceOnUse" id="未命名的渐变_59-5" node-id="15" spreadMethod="pad" x1="452.48" x2="583.35" y1="352.33" y2="352.33"><stop offset="0" stop-color="#35a2e6"/><stop offset="1" stop-color="#2256bd"/></linearGradient><linearGradient gradientUnits="userSpaceOnUse" id="未命名的渐变_59-6" node-id="16" spreadMethod="pad" x1="303.1" x2="434.18" y1="534" y2="534"><stop offset="0" stop-color="#35a2e6"/><stop offset="1" stop-color="#2256bd"/></linearGradient><linearGradient gradientUnits="userSpaceOnUse" id="未命名的渐变_46-3" node-id="17" spreadMethod="pad" x1="428.15" x2="509.43" y1="427.45" y2="270.59"><stop offset="0" stop-color="#5496e8"/><stop offset="1" stop-color="#3462bf"/></linearGradient><linearGradient gradientUnits="userSpaceOnUse" id="未命名的渐变_46-4" node-id="18" spreadMethod="pad" x1="290.42" x2="367.43" y1="614.35" y2="430.4"><stop offset="0" stop-color="#5496e8"/><stop offset="1" stop-color="#3462bf"/></linearGradient><linearGradient gradientUnits="userSpaceOnUse" id="未命名的渐变_46-5" node-id="19" spreadMethod="pad" x1="203.33" x2="588.33" y1="705.7" y2="169.55"><stop offset="0" stop-color="#5496e8"/><stop offset="1" stop-color="#3462bf"/></linearGradient><linearGradient gradientUnits="userSpaceOnUse" id="未命名的渐变_37" node-id="20" spreadMethod="pad" x1="498.2" x2="836.15" y1="944.8" y2="253.94"><stop offset="0" stop-color="#8ffbff"/><stop offset="1" stop-color="#4a83ff"/></linearGradient><linearGradient gradientUnits="userSpaceOnUse" id="未命名的渐变_37-2" node-id="23" spreadMethod="pad" x1="449.38" x2="787.33" y1="920.92" y2="230.06"><stop offset="0" stop-color="#8ffbff"/><stop offset="1" stop-color="#4a83ff"/></linearGradient><linearGradient gradientUnits="userSpaceOnUse" id="未命名的渐变_37-3" node-id="24" spreadMethod="pad" x1="323" x2="660.95" y1="859.1" y2="168.23"><stop offset="0" stop-color="#8ffbff"/><stop offset="1" stop-color="#4a83ff"/></linearGradient><linearGradient gradientUnits="userSpaceOnUse" id="未命名的渐变_37-4" node-id="25" spreadMethod="pad" x1="274.38" x2="612.32" y1="835.32" y2="144.45"><stop offset="0" stop-color="#8ffbff"/><stop offset="1" stop-color="#4a83ff"/></linearGradient><linearGradient gradientUnits="userSpaceOnUse" id="未命名的渐变_37-5" node-id="26" spreadMethod="pad" x1="432.89" x2="770.84" y1="912.86" y2="221.99"><stop offset="0" stop-color="#8ffbff"/><stop offset="1" stop-color="#4a83ff"/></linearGradient></defs><path d="M 876.00 780.00 L 782.40 729.08 C 782.02 728.88 781.65 728.68 781.26 728.49 C 779.37 727.56 777.40 726.83 775.36 726.31 C 775.04 726.23 774.66 726.31 774.36 726.26 C 770.49 725.34 766.48 725.13 762.54 725.65 L 675.19 738.00 L 768.79 788.92 L 856.13 776.65 C 860.07 776.13 864.08 776.34 867.95 777.26 C 870.75 777.80 873.46 778.72 876.00 780.00 Z" fill="url(#未命名的渐变_59)" fill-rule="nonzero" node-id="145" stroke="none" target-height="63.788452" target-width="200.81" target-x="675.19" target-y="725.13153"/><path d="M 799.33 611.18 C 801.06 606.47 802.41 601.62 803.93 596.83 C 805.16 592.95 806.56 589.15 807.65 585.22 C 809.14 579.85 810.23 574.36 811.45 568.90 C 812.29 565.13 813.33 561.41 814.03 557.61 C 815.15 551.61 815.83 545.46 816.60 539.35 C 817.02 536.02 817.66 532.75 817.98 529.35 C 818.87 519.86 819.34 510.31 819.37 500.70 C 819.56 400.70 771.16 319.50 698.24 279.83 L 604.63 229.00 C 677.55 268.63 726.00 349.85 725.76 449.83 C 725.76 459.44 725.30 468.99 724.37 478.48 C 724.05 481.83 723.37 485.11 722.99 488.48 C 722.22 494.59 721.54 500.71 720.42 506.74 C 719.71 510.55 718.68 514.26 717.84 518.03 C 716.62 523.49 715.53 528.98 714.04 534.35 C 712.95 538.27 711.55 542.08 710.32 545.96 C 708.73 550.96 707.25 556.03 705.43 560.96 C 700.39 574.33 694.51 587.37 687.83 600.00 C 686.55 602.46 685.31 605.00 683.96 607.38 C 678.22 617.87 671.95 628.05 665.15 637.88 C 664.27 639.14 663.28 640.30 662.38 641.54 C 656.61 649.58 650.50 657.33 644.06 664.79 C 641.86 667.34 639.61 669.79 637.34 672.31 C 631.34 678.87 625.11 685.16 618.65 691.18 C 616.73 692.97 614.88 694.86 612.92 696.61 C 604.10 704.43 594.86 711.75 585.22 718.53 C 583.39 719.82 581.49 720.97 579.64 722.22 C 567.42 730.56 554.58 737.96 541.24 744.37 C 540.31 744.81 539.34 745.13 538.40 745.56 C 528.57 750.03 518.49 753.92 508.20 757.20 C 505.30 758.14 502.39 759.04 499.46 759.87 C 488.10 763.21 476.53 765.77 464.82 767.52 C 453.61 769.02 442.31 769.73 431.00 769.64 C 428.72 769.64 426.42 769.64 424.16 769.64 C 413.68 769.37 403.22 768.36 392.88 766.64 C 391.07 766.34 389.31 765.89 387.51 765.54 C 378.30 763.76 369.21 761.38 360.30 758.42 C 358.81 757.92 357.30 757.54 355.81 757.02 C 345.39 753.33 335.26 748.83 325.53 743.58 L 419.13 794.50 C 421.75 795.93 424.42 797.30 427.13 798.61 C 434.39 802.13 441.85 805.25 449.46 807.93 C 450.93 808.46 452.46 808.84 453.95 809.33 C 458.72 810.92 463.45 812.57 468.36 813.84 C 472.55 814.92 476.88 815.63 481.17 816.46 C 482.97 816.81 484.71 817.25 486.53 817.56 C 496.87 819.28 507.33 820.29 517.81 820.56 C 520.08 820.63 522.36 820.56 524.65 820.56 C 535.95 820.64 547.23 819.93 558.43 818.43 C 570.14 816.68 581.71 814.12 593.07 810.78 C 596.01 809.94 598.91 809.04 601.82 808.10 C 612.10 804.83 622.18 800.96 632.00 796.50 C 632.76 796.15 633.58 795.96 634.34 795.60 C 634.51 795.52 634.67 795.39 634.84 795.31 C 648.18 788.91 661.02 781.50 673.25 773.16 C 674.34 772.42 675.57 771.95 676.65 771.16 C 677.41 770.64 678.07 769.97 678.82 769.44 C 688.46 762.66 697.70 755.34 706.52 747.52 C 707.05 747.05 707.65 746.68 708.18 746.20 C 709.61 744.91 710.85 743.40 712.26 742.09 C 718.71 736.09 724.93 729.81 730.92 723.24 C 732.17 721.87 733.59 720.70 734.81 719.31 C 735.81 718.16 736.67 716.85 737.67 715.68 C 744.08 708.22 750.18 700.48 755.97 692.45 C 756.71 691.45 757.58 690.52 758.30 689.45 C 758.46 689.22 758.58 688.97 758.74 688.74 C 765.54 678.91 771.82 668.73 777.55 658.24 C 778.17 657.12 778.95 656.11 779.55 654.98 C 780.26 653.66 780.71 652.19 781.40 650.86 C 788.08 638.23 793.96 625.19 799.00 611.82 C 799.13 611.60 799.25 611.40 799.33 611.18 Z" fill="url(#未命名的渐变_59-2)" fill-rule="nonzero" node-id="147" stroke="none" target-height="591.6398" target-width="494.03" target-x="325.53" target-y="229"/><path d="M 730.28 523.23 C 731.50 519.96 732.13 516.49 732.15 513.00 C 732.15 503.61 727.59 496.00 720.74 492.25 L 627.13 441.33 C 633.98 445.05 638.56 452.69 638.54 462.08 C 638.52 465.63 637.87 469.16 636.61 472.48 C 636.61 472.55 636.54 472.62 636.52 472.69 C 635.32 475.83 633.63 478.77 631.52 481.39 L 631.19 481.81 C 629.13 484.28 626.69 486.40 623.96 488.10 C 623.69 488.27 623.40 488.42 623.13 488.58 C 620.37 490.23 617.31 491.33 614.13 491.82 C 611.55 492.16 608.92 492.02 606.39 491.42 C 604.54 491.05 602.76 490.42 601.08 489.56 L 694.68 540.48 L 695.43 540.87 C 696.67 541.48 697.97 541.96 699.31 542.30 C 699.52 542.35 699.77 542.30 699.98 542.30 C 702.51 542.90 705.14 543.04 707.72 542.70 C 710.15 542.35 712.51 541.64 714.72 540.59 C 715.39 540.27 716.02 539.84 716.66 539.47 C 716.94 539.31 717.22 539.16 717.50 538.99 C 717.78 538.82 718.30 538.57 718.68 538.31 C 719.73 537.59 720.73 536.81 721.68 535.96 C 722.57 535.16 723.41 534.31 724.20 533.42 C 724.40 533.19 724.57 532.94 724.76 532.71 L 725.10 532.28 C 725.55 531.72 726.01 531.19 726.42 530.60 C 727.95 528.44 729.19 526.08 730.12 523.60 C 730.12 523.53 730.19 523.46 730.21 523.39 Z" fill="url(#未命名的渐变_59-3)" fill-rule="nonzero" node-id="149" stroke="none" target-height="101.71048" target-width="131.07" target-x="601.08" target-y="441.33"/><path d="M 582.75 694.52 C 582.75 685.17 578.29 677.52 571.47 673.81 L 477.87 622.89 C 484.69 626.60 489.16 634.25 489.15 643.60 C 489.14 647.20 488.49 650.77 487.24 654.15 C 486.05 657.34 484.36 660.32 482.24 662.98 L 481.89 663.42 C 479.86 665.89 477.44 668.02 474.73 669.71 C 474.47 669.87 474.20 670.01 473.93 670.17 C 471.17 671.82 468.11 672.93 464.93 673.42 C 462.33 673.77 459.68 673.63 457.13 673.03 C 455.31 672.67 453.54 672.05 451.89 671.20 L 545.50 722.12 L 546.24 722.50 C 547.46 723.10 548.74 723.57 550.06 723.91 C 550.27 723.96 550.53 723.91 550.75 723.91 C 553.30 724.51 555.95 724.65 558.55 724.30 C 560.98 723.95 563.33 723.24 565.55 722.19 C 566.24 721.87 566.87 721.43 567.55 721.05 C 567.82 720.90 568.08 720.76 568.34 720.59 C 568.60 720.42 569.10 720.19 569.46 719.94 C 570.47 719.24 571.44 718.47 572.36 717.64 C 573.23 716.86 574.05 716.03 574.82 715.16 C 575.06 714.88 575.27 714.57 575.51 714.29 L 575.86 713.85 C 576.24 713.37 576.65 712.90 577.00 712.40 C 578.60 710.12 579.89 707.65 580.85 705.04 L 580.85 705.04 C 582.09 701.67 582.73 698.11 582.75 694.52 Z" fill="url(#未命名的渐变_59-4)" fill-rule="nonzero" node-id="151" stroke="none" target-height="101.75635" target-width="130.85999" target-x="451.89" target-y="622.89"/><path d="M 734.76 427.00 C 736.24 427.33 737.69 427.72 739.13 428.14 C 742.04 429.00 744.89 430.06 747.66 431.29 C 749.36 432.04 751.13 432.67 752.76 433.55 L 752.68 433.55 L 752.76 433.55 L 659.15 382.63 C 658.31 382.17 657.46 381.73 656.59 381.31 C 655.79 380.92 654.88 380.74 654.06 380.38 C 651.28 379.14 648.43 378.08 645.51 377.22 C 644.76 377.00 644.08 376.61 643.32 376.41 C 642.56 376.21 641.85 376.24 641.15 376.08 C 638.21 375.44 635.22 374.98 632.22 374.71 C 630.82 374.58 629.47 374.37 628.05 374.31 C 623.47 374.11 618.88 374.31 614.34 374.92 C 609.16 375.71 604.06 376.98 599.12 378.71 C 597.67 379.20 596.28 379.78 594.86 380.35 C 593.17 381.02 591.41 381.53 589.76 382.35 C 588.11 383.17 586.76 384.13 585.24 384.96 C 583.18 386.07 581.16 387.19 579.18 388.45 C 578.18 389.08 577.10 389.54 576.18 390.21 C 573.79 391.86 571.58 393.77 569.33 395.63 C 568.53 396.29 567.68 396.86 566.90 397.55 C 566.63 397.79 566.32 397.98 566.05 398.22 C 563.04 400.93 560.18 403.81 557.50 406.85 C 556.96 407.46 556.50 408.16 555.98 408.78 C 555.17 409.78 554.43 410.78 553.65 411.78 C 552.42 413.34 551.11 414.78 549.97 416.46 C 548.63 418.37 547.51 420.46 546.29 422.46 C 545.59 423.61 544.84 424.70 544.18 425.88 C 543.86 426.46 543.46 426.98 543.18 427.57 C 541.19 431.37 539.43 435.29 537.90 439.30 C 537.61 440.02 537.22 440.69 536.90 441.41 C 536.90 441.50 536.82 441.58 536.78 441.67 C 535.59 445.28 534.58 448.95 533.78 452.67 C 533.25 454.80 532.45 456.84 532.04 459.01 C 530.91 465.07 530.34 471.22 530.32 477.38 C 530.26 509.53 545.75 535.58 569.18 548.32 L 662.78 599.24 C 639.36 586.50 623.87 560.45 623.93 528.30 C 623.95 522.13 624.52 515.98 625.65 509.92 C 626.03 507.92 626.79 505.92 627.29 503.92 C 628.15 499.99 629.23 496.12 630.52 492.31 C 630.79 491.58 631.19 490.92 631.52 490.20 C 633.32 485.59 635.43 481.11 637.84 476.78 C 638.50 475.60 639.25 474.49 639.96 473.35 C 642.20 469.67 644.65 466.12 647.30 462.73 C 648.08 461.73 648.83 460.73 649.64 459.73 C 652.99 455.72 656.64 451.97 660.55 448.50 C 661.33 447.81 662.19 447.23 663.00 446.56 C 666.15 443.97 669.45 441.58 672.89 439.39 C 674.89 438.13 676.89 437.01 678.89 435.91 C 682.01 434.20 685.22 432.67 688.52 431.34 C 689.93 430.78 691.34 430.19 692.78 429.70 C 697.72 427.96 702.82 426.70 708.00 425.91 C 712.54 425.30 717.13 425.10 721.71 425.30 C 723.13 425.35 724.49 425.56 725.88 425.70 C 728.86 425.95 731.83 426.38 734.76 427.00 Z" fill="url(#未命名的渐变_46)" fill-rule="nonzero" node-id="153" stroke="none" target-height="225.13412" target-width="222.5" target-x="530.26" target-y="374.10587"/><path d="M 477.73 685.58 C 478.60 681.64 479.69 677.76 481.00 673.94 C 481.36 672.94 481.87 672.10 482.26 671.15 C 484.00 666.77 486.02 662.50 488.31 658.38 C 489.00 657.16 489.77 656.02 490.50 654.83 C 492.74 651.16 495.20 647.62 497.86 644.24 C 498.64 643.24 499.38 642.24 500.19 641.24 C 503.58 637.23 507.25 633.47 511.19 629.99 C 512.01 629.27 512.92 628.66 513.76 627.99 C 516.88 625.43 520.16 623.06 523.57 620.89 C 525.57 619.61 527.63 618.47 529.70 617.35 C 532.82 615.64 536.03 614.12 539.32 612.78 C 540.73 612.22 542.14 611.63 543.58 611.14 C 548.53 609.40 553.63 608.13 558.82 607.34 C 563.34 606.74 567.90 606.54 572.45 606.74 C 573.86 606.79 575.22 607.01 576.61 607.14 C 579.60 607.41 582.56 607.86 585.49 608.50 C 586.96 608.83 588.41 609.22 589.85 609.64 C 592.77 610.50 595.64 611.56 598.42 612.80 C 600.12 613.55 601.89 614.18 603.51 615.06 L 509.90 564.14 C 509.05 563.68 508.20 563.24 507.33 562.81 C 506.53 562.42 505.63 562.24 504.81 561.88 C 502.03 560.64 499.16 559.58 496.24 558.71 C 495.48 558.49 494.81 558.09 494.04 557.90 C 493.27 557.71 492.59 557.73 491.89 557.57 C 488.95 556.93 485.98 556.48 482.99 556.21 C 481.61 556.08 480.26 555.87 478.86 555.81 C 474.30 555.61 469.74 555.81 465.22 556.42 C 460.03 557.21 454.92 558.48 449.97 560.22 C 448.53 560.71 447.14 561.29 445.73 561.85 C 444.03 562.53 442.26 563.04 440.60 563.85 C 438.94 564.66 437.60 565.63 436.08 566.46 C 434.00 567.58 431.96 568.71 429.96 569.99 C 428.96 570.63 427.86 571.09 426.88 571.77 C 424.54 573.39 422.37 575.26 420.16 577.09 C 419.31 577.79 418.40 578.41 417.57 579.14 C 417.28 579.39 416.95 579.60 416.67 579.85 C 413.63 582.58 410.76 585.49 408.05 588.55 C 407.54 589.13 407.11 589.78 406.62 590.37 C 405.80 591.37 405.06 592.37 404.28 593.37 C 403.01 594.98 401.65 596.52 400.47 598.21 C 399.29 599.90 398.11 602.03 396.93 603.95 C 396.20 605.14 395.43 606.27 394.75 607.49 C 394.40 608.11 393.96 608.68 393.62 609.32 C 391.78 612.88 390.13 616.53 388.69 620.27 C 388.31 621.22 387.79 622.10 387.43 623.06 C 387.38 623.20 387.30 623.32 387.25 623.46 C 386.02 627.15 384.99 630.91 384.17 634.71 C 383.68 636.71 382.93 638.58 382.56 640.59 C 381.43 646.62 380.85 652.74 380.83 658.87 C 380.77 691.05 396.35 717.07 419.83 729.87 L 513.43 780.79 C 489.98 768.03 474.43 742.01 474.43 709.79 C 474.45 703.66 475.03 697.54 476.16 691.51 C 476.49 689.46 477.24 687.56 477.73 685.58 Z" fill="url(#未命名的渐变_46-2)" fill-rule="nonzero" node-id="155" stroke="none" target-height="225.18347" target-width="222.74002" target-x="380.77" target-y="555.6065"/><path d="M 583.35 373.26 C 583.35 363.83 578.88 356.15 572.05 352.43 L 478.45 301.51 C 485.28 305.22 489.76 312.91 489.75 322.34 C 489.73 325.91 489.09 329.45 487.85 332.80 L 487.85 332.80 C 486.66 335.98 484.97 338.94 482.85 341.59 L 482.50 342.03 C 480.47 344.49 478.06 346.61 475.35 348.30 C 475.08 348.47 474.81 348.61 474.54 348.77 C 471.78 350.42 468.72 351.52 465.54 352.01 C 462.93 352.36 460.29 352.22 457.73 351.62 C 455.90 351.26 454.14 350.64 452.48 349.79 L 546.09 400.71 L 546.83 401.09 C 548.06 401.69 549.34 402.16 550.66 402.50 C 550.87 402.55 551.13 402.50 551.35 402.50 C 553.91 403.10 556.55 403.24 559.16 402.89 C 561.59 402.54 563.95 401.83 566.16 400.78 C 566.84 400.46 567.47 400.03 568.16 399.65 C 568.43 399.49 568.70 399.36 568.97 399.19 C 569.24 399.02 569.74 398.79 570.09 398.54 C 571.11 397.84 572.08 397.07 573.00 396.24 C 573.87 395.46 574.69 394.63 575.46 393.75 C 575.70 393.48 575.90 393.18 576.12 392.91 L 576.47 392.47 C 576.86 391.98 577.28 391.47 577.64 390.98 C 579.23 388.72 580.51 386.26 581.47 383.66 C 582.70 380.33 583.33 376.81 583.35 373.26 Z" fill="url(#未命名的渐变_59-5)" fill-rule="nonzero" node-id="157" stroke="none" target-height="101.7269" target-width="130.86996" target-x="452.48" target-y="301.51"/><path d="M 432.31 565.11 C 433.52 561.83 434.15 558.37 434.17 554.87 C 434.17 545.48 429.61 537.87 422.76 534.12 L 329.16 483.20 C 336.01 486.92 340.59 494.56 340.57 503.95 C 340.55 507.50 339.90 511.03 338.64 514.35 C 338.64 514.42 338.58 514.48 338.55 514.55 C 337.35 517.70 335.66 520.64 333.55 523.26 L 333.23 523.67 C 331.17 526.15 328.73 528.29 326.00 530.00 C 325.72 530.17 325.44 530.32 325.16 530.49 C 322.40 532.13 319.34 533.23 316.16 533.72 C 313.57 534.06 310.95 533.92 308.41 533.32 C 306.57 532.95 304.78 532.32 303.11 531.46 L 396.71 582.38 L 397.46 582.77 C 398.70 583.38 400.00 583.86 401.34 584.20 C 401.55 584.25 401.80 584.20 402.01 584.20 C 404.55 584.81 407.17 584.94 409.76 584.60 C 412.19 584.25 414.54 583.54 416.76 582.49 C 417.43 582.17 418.05 581.74 418.70 581.37 C 418.99 581.20 419.26 581.06 419.54 580.88 C 419.82 580.70 420.34 580.46 420.71 580.20 C 421.76 579.48 422.76 578.70 423.71 577.85 C 424.60 577.05 425.44 576.20 426.23 575.31 C 426.43 575.08 426.60 574.83 426.79 574.59 L 427.12 574.17 C 427.57 573.61 428.04 573.07 428.45 572.48 C 429.18 571.44 429.85 570.35 430.45 569.23 C 431.10 568.01 431.67 566.75 432.15 565.46 C 432.15 565.39 432.21 565.33 432.24 565.26 Z" fill="url(#未命名的渐变_59-6)" fill-rule="nonzero" node-id="159" stroke="none" target-height="101.74097" target-width="131.06003" target-x="303.11" target-y="483.2"/><path d="M 478.33 364.24 C 479.20 360.28 480.29 356.37 481.60 352.53 C 481.93 351.64 482.41 350.82 482.77 349.94 C 484.54 345.48 486.60 341.13 488.93 336.94 C 489.60 335.75 490.37 334.61 491.08 333.45 C 493.32 329.77 495.78 326.22 498.44 322.82 C 499.23 321.82 500.00 320.82 500.83 319.82 C 504.21 315.79 507.89 312.01 511.83 308.52 C 512.60 307.84 513.45 307.27 514.24 306.61 C 517.42 303.99 520.76 301.56 524.24 299.35 C 526.24 298.09 528.24 296.96 530.30 295.85 C 533.42 294.13 536.65 292.59 539.95 291.25 C 541.36 290.69 542.75 290.11 544.18 289.62 C 549.12 287.88 554.22 286.61 559.40 285.82 C 563.90 285.22 568.44 285.01 572.98 285.22 C 574.37 285.27 575.71 285.49 577.08 285.61 C 580.07 285.88 583.04 286.33 585.97 286.97 C 587.43 287.30 588.86 287.69 590.29 288.10 C 593.21 288.96 596.07 290.02 598.85 291.26 C 600.55 292.01 602.31 292.64 603.93 293.52 L 510.33 242.60 C 509.48 242.14 508.63 241.70 507.76 241.27 C 506.96 240.88 506.06 240.70 505.25 240.34 C 502.47 239.10 499.60 238.04 496.68 237.18 C 495.93 236.96 495.25 236.57 494.49 236.37 C 493.73 236.17 493.06 236.20 492.36 236.04 C 489.43 235.40 486.47 234.95 483.48 234.68 C 482.11 234.55 480.78 234.34 479.38 234.29 C 474.84 234.08 470.30 234.29 465.80 234.89 C 460.62 235.68 455.52 236.95 450.58 238.69 C 449.14 239.18 447.76 239.76 446.34 240.32 C 444.67 240.98 442.94 241.49 441.34 242.25 C 439.74 243.01 438.34 244.07 436.73 244.91 C 434.67 246.03 432.64 247.14 430.65 248.41 C 429.65 249.03 428.65 249.48 427.65 250.14 C 425.22 251.82 422.95 253.77 420.65 255.67 C 419.86 256.33 419.01 256.90 418.24 257.58 C 417.98 257.81 417.68 257.99 417.43 258.22 C 414.39 260.96 411.51 263.87 408.80 266.94 C 408.26 267.55 407.80 268.25 407.27 268.88 C 406.44 269.88 405.68 270.88 404.88 271.88 C 403.65 273.45 402.33 274.94 401.17 276.58 C 399.84 278.48 398.72 280.53 397.51 282.51 C 396.79 283.68 396.03 284.80 395.36 286.00 C 395.02 286.60 394.61 287.14 394.28 287.75 C 392.36 291.40 390.65 295.16 389.16 299.00 C 388.80 299.89 388.32 300.70 387.99 301.59 C 387.99 301.70 387.88 301.81 387.84 301.92 C 386.64 305.56 385.64 309.27 384.84 313.02 C 384.32 315.10 383.54 317.09 383.15 319.20 C 382.02 325.25 381.44 331.39 381.42 337.55 C 381.36 369.55 397.00 395.70 420.54 408.55 L 514.15 459.47 C 490.61 446.67 474.97 420.54 475.03 388.47 C 475.05 382.31 475.63 376.16 476.77 370.11 C 477.09 368.12 477.84 366.22 478.33 364.24 Z" fill="url(#未命名的渐变_46-3)" fill-rule="nonzero" node-id="161" stroke="none" target-height="225.38565" target-width="222.57" target-x="381.36" target-y="234.08435"/><path d="M 329.28 545.78 C 330.14 541.86 331.22 538.00 332.52 534.20 C 332.85 533.30 333.34 532.47 333.70 531.57 C 335.46 527.13 337.51 522.81 339.83 518.63 C 340.50 517.44 341.26 516.31 341.98 515.14 C 344.22 511.47 346.68 507.93 349.33 504.54 C 350.11 503.54 350.87 502.54 351.68 501.54 C 355.04 497.53 358.70 493.78 362.61 490.31 C 363.41 489.60 364.29 489.01 365.11 488.31 C 368.24 485.73 371.53 483.35 374.95 481.17 C 376.95 479.90 378.95 478.77 381.03 477.66 C 384.13 475.96 387.33 474.43 390.61 473.10 C 392.01 472.54 393.40 471.96 394.83 471.48 C 399.76 469.76 404.84 468.52 410.00 467.75 C 414.56 467.14 419.16 466.93 423.75 467.14 C 425.16 467.19 426.51 467.40 427.89 467.53 C 430.92 467.80 433.92 468.26 436.89 468.91 C 438.36 469.24 439.81 469.63 441.24 470.05 C 444.17 470.92 447.05 471.98 449.84 473.23 C 451.54 473.99 453.32 474.61 454.95 475.50 L 361.34 424.58 C 360.49 424.12 359.64 423.68 358.77 423.25 C 357.97 422.86 357.05 422.68 356.23 422.31 C 353.44 421.06 350.56 420.00 347.63 419.13 C 346.88 418.91 346.20 418.52 345.44 418.32 C 344.68 418.12 343.98 418.15 343.28 417.99 C 340.31 417.34 337.31 416.88 334.28 416.61 C 332.89 416.48 331.54 416.27 330.13 416.22 C 325.54 416.01 320.94 416.22 316.38 416.83 C 311.23 417.61 306.16 418.88 301.24 420.61 C 299.81 421.10 298.43 421.67 297.02 422.23 C 295.34 422.90 293.61 423.40 292.02 424.17 C 290.43 424.94 289.02 425.96 287.47 426.79 C 285.41 427.91 283.38 429.02 281.40 430.29 C 280.40 430.92 279.34 431.37 278.40 432.04 C 276.03 433.68 273.82 435.58 271.58 437.43 C 270.75 438.11 269.88 438.70 269.08 439.43 C 268.80 439.67 268.49 439.87 268.22 440.11 C 265.19 442.84 262.32 445.74 259.62 448.80 C 259.10 449.39 258.62 450.07 258.15 450.67 C 257.34 451.67 256.60 452.67 255.81 453.67 C 254.55 455.27 253.21 456.79 252.04 458.46 C 250.74 460.31 249.65 462.32 248.46 464.26 C 247.74 465.44 246.97 466.57 246.29 467.78 C 245.95 468.39 245.52 468.95 245.19 469.57 C 243.32 473.16 241.65 476.85 240.19 480.62 C 239.82 481.55 239.31 482.41 238.96 483.35 C 238.96 483.47 238.85 483.59 238.80 483.71 C 237.60 487.35 236.60 491.05 235.80 494.79 C 235.29 496.85 234.52 498.79 234.13 500.90 C 233.00 506.94 232.42 513.07 232.40 519.22 C 232.34 551.37 247.96 577.40 271.40 590.14 L 364.89 641.00 C 341.47 628.26 325.89 602.23 325.89 570.08 C 325.91 563.93 326.49 557.80 327.62 551.76 C 328.00 549.72 328.78 547.79 329.28 545.78 Z" fill="url(#未命名的渐变_46-4)" fill-rule="nonzero" node-id="163" stroke="none" target-height="224.98752" target-width="222.61002" target-x="232.34" target-y="416.01248"/><path d="M 227.17 535.29 C 228.17 527.29 229.08 519.29 230.54 511.36 C 231.44 506.48 232.77 501.73 233.85 496.90 C 235.41 489.90 236.85 482.81 238.75 475.90 C 240.16 470.80 241.99 465.90 243.58 460.82 C 245.66 454.29 247.58 447.70 249.96 441.28 C 250.96 438.70 252.07 436.21 253.08 433.65 C 256.23 425.65 259.53 417.65 263.14 409.85 C 264.84 406.18 266.71 402.59 268.51 398.97 C 271.38 393.20 274.38 387.50 277.51 381.87 C 284.88 368.39 292.95 355.31 301.68 342.67 C 302.76 341.12 303.99 339.67 305.09 338.16 C 312.57 327.73 320.52 317.70 328.83 308.03 C 331.66 304.74 334.58 301.53 337.50 298.33 C 345.18 289.92 353.16 281.86 361.45 274.14 C 363.97 271.79 366.39 269.31 368.97 267.03 C 380.31 256.97 392.21 247.55 404.61 238.82 C 409.96 235.05 415.44 231.52 420.95 228.04 C 424.49 225.80 427.95 223.44 431.55 221.32 C 438.55 217.19 445.80 213.46 453.05 209.81 C 455.70 208.48 458.26 206.95 460.93 205.69 C 470.28 201.27 479.84 197.33 489.51 193.69 C 492.13 192.69 494.80 191.87 497.44 190.97 C 504.93 188.40 512.50 186.08 520.15 184.03 C 523.07 183.25 525.98 182.44 528.91 181.74 C 539.05 179.31 549.27 177.20 559.64 175.74 C 568.94 174.43 578.12 173.66 587.23 173.19 C 590.13 173.04 592.99 173.06 595.87 172.99 C 602.13 172.84 608.35 172.84 614.50 173.08 C 617.68 173.20 620.83 173.39 623.98 173.61 C 629.98 174.03 635.89 174.66 641.75 175.44 C 644.62 175.82 647.50 176.15 650.34 176.61 C 657.51 177.79 664.58 179.25 671.56 180.95 C 672.89 181.28 674.26 181.49 675.56 181.83 C 683.96 184.01 692.18 186.63 700.25 189.55 C 702.54 190.38 704.77 191.35 707.03 192.24 C 712.83 194.51 718.55 196.94 724.15 199.59 C 728.89 201.83 733.64 204.04 738.23 206.54 L 644.63 155.62 C 641.26 153.79 637.84 152.02 634.39 150.32 C 633.14 149.71 631.80 149.27 630.54 148.67 C 624.93 146.02 619.22 143.60 613.42 141.32 C 611.15 140.43 608.93 139.46 606.64 138.63 C 598.56 135.71 590.35 133.09 581.94 130.91 C 581.75 130.91 581.57 130.78 581.39 130.74 C 580.27 130.45 579.09 130.31 577.96 130.04 C 570.96 128.34 563.90 126.87 556.71 125.69 C 553.87 125.23 551.00 124.90 548.13 124.52 C 542.26 123.74 536.34 123.11 530.35 122.69 C 527.20 122.47 524.05 122.28 520.87 122.16 C 514.72 121.92 508.50 121.93 502.24 122.07 C 499.36 122.14 496.50 122.12 493.60 122.27 C 484.49 122.74 475.31 123.51 466.01 124.82 C 455.64 126.28 445.42 128.39 435.28 130.82 C 432.34 131.52 429.43 132.33 426.51 133.11 C 418.86 135.16 411.30 137.47 403.82 140.04 C 401.17 140.95 398.50 141.80 395.82 142.77 C 386.49 146.24 377.25 149.97 368.21 154.22 C 367.89 154.37 367.58 154.56 367.21 154.72 C 364.52 155.99 361.94 157.53 359.28 158.87 C 352.03 162.52 344.83 166.24 337.81 170.37 C 334.22 172.48 330.81 174.84 327.23 177.07 C 322.71 179.93 318.08 182.61 313.67 185.66 C 312.67 186.33 311.86 187.18 310.90 187.86 C 298.50 196.59 286.60 206.02 275.25 216.08 C 274.55 216.70 273.75 217.19 273.05 217.82 C 271.19 219.49 269.58 221.46 267.75 223.17 C 259.46 230.91 251.46 238.98 243.75 247.39 C 242.14 249.15 240.31 250.67 238.75 252.46 C 237.47 253.92 236.40 255.58 235.13 257.05 C 226.79 266.76 218.85 276.83 211.32 287.27 C 210.43 288.51 209.32 289.61 208.49 290.86 C 208.30 291.13 208.16 291.43 207.97 291.70 C 199.26 304.37 191.21 317.49 183.86 331.00 C 183.05 332.47 182.02 333.80 181.22 335.28 C 178.97 339.46 177.03 343.81 174.91 348.06 C 173.11 351.69 171.24 355.28 169.53 358.96 C 165.92 366.76 162.63 374.71 159.48 382.73 C 158.48 385.30 157.32 387.79 156.36 390.38 C 156.19 390.83 155.98 391.27 155.81 391.72 C 153.59 397.72 151.86 403.98 149.91 410.12 C 148.34 415.12 146.54 419.95 145.15 424.97 C 143.21 431.97 141.78 439.09 140.20 446.19 C 139.14 450.96 137.83 455.65 136.93 460.46 C 135.43 468.55 134.49 476.76 133.48 484.96 C 132.99 488.89 132.22 492.76 131.85 496.71 C 130.70 508.91 130.10 521.19 130.06 533.56 C 129.82 662.01 192.06 766.21 285.74 817.18 L 379.34 868.10 C 285.65 817.10 223.42 712.92 223.66 584.48 C 223.66 572.13 224.26 559.85 225.45 547.65 C 225.85 543.48 226.65 539.42 227.17 535.29 Z" fill="url(#未命名的渐变_46-5)" fill-rule="nonzero" node-id="165" stroke="none" target-height="746.18" target-width="608.41" target-x="129.82" target-y="121.92"/><path d="M 707.95 425.87 C 661.57 432.39 623.95 478.15 623.88 528.21 C 623.81 578.27 661.23 613.38 707.61 606.86 C 753.99 600.34 791.61 554.58 791.68 504.63 C 791.75 454.68 754.22 419.37 707.95 425.87 Z M 707.73 542.72 C 694.26 544.61 683.28 534.28 683.30 519.86 C 683.32 505.44 694.36 491.86 707.82 490.00 C 721.28 488.14 732.17 498.46 732.14 513.00 C 732.11 527.54 721.09 540.85 707.73 542.72 Z" fill="url(#未命名的渐变_37)" fill-rule="nonzero" node-id="167" stroke="none" target-height="194.01001" target-width="167.94" target-x="623.81" target-y="419.37"/><path d="M 558.77 607.37 C 512.39 613.89 474.48 659.81 474.38 709.76 C 474.28 759.71 512.00 795.00 558.43 788.47 C 604.49 781.99 642.43 736.19 642.50 686.12 C 642.57 636.05 604.83 600.89 558.77 607.37 Z M 558.55 724.37 C 544.87 726.29 534.21 715.91 534.23 701.37 C 534.25 686.83 544.97 673.57 558.65 671.64 C 572.12 669.75 582.78 680.13 582.75 694.55 C 582.72 708.97 572.00 722.44 558.55 724.34 Z" fill="url(#未命名的渐变_37-2)" fill-rule="nonzero" node-id="169" stroke="none" target-height="194.10999" target-width="168.29001" target-x="474.28" target-y="600.89"/><path d="M 559.00 467.21 C 605.06 460.73 643.00 414.58 643.07 364.87 C 643.16 314.81 605.41 279.29 559.34 285.76 C 513.00 292.28 475.07 338.43 475.00 388.49 C 474.89 438.21 512.64 473.73 559.00 467.21 Z M 559.22 350.21 C 572.69 348.32 583.35 358.70 583.32 373.21 C 583.29 387.72 572.58 401.01 559.12 402.91 C 545.44 404.83 534.77 394.45 534.80 380.03 C 534.83 365.61 545.57 352.16 559.25 350.24 Z" fill="url(#未命名的渐变_37-3)" fill-rule="nonzero" node-id="171" stroke="none" target-height="194.44" target-width="168.26996" target-x="474.89" target-y="279.29"/><path d="M 410.00 467.75 C 363.94 474.23 326.00 520.03 325.93 570.09 C 325.86 620.15 363.59 655.21 409.66 648.74 C 455.94 642.24 493.85 596.43 493.94 546.48 C 494.03 496.53 456.25 461.24 410.00 467.75 Z M 409.78 584.60 C 396.31 586.49 385.33 576.16 385.35 561.74 C 385.37 547.32 396.41 533.74 409.87 531.89 C 423.33 530.04 434.22 540.35 434.19 554.89 C 434.16 569.43 423.12 582.72 409.76 584.60 Z" fill="url(#未命名的渐变_37-4)" fill-rule="nonzero" node-id="173" stroke="none" target-height="193.97003" target-width="168.17001" target-x="325.86" target-y="461.24"/><path d="M 856.13 776.60 L 768.79 788.87 C 844.84 711.87 893.72 603.69 893.93 490.27 C 894.30 290.84 744.10 149.85 559.61 175.78 C 374.84 201.74 224.00 385.00 223.67 584.46 C 223.34 783.92 373.50 924.89 558.27 898.92 L 856.00 857.08 C 876.56 854.19 893.32 833.79 893.36 811.60 C 893.40 789.41 876.69 773.71 856.13 776.60 Z M 558.42 818.44 C 414.50 838.66 297.95 729.00 298.24 574.00 C 298.53 419.00 415.55 276.20 559.47 256.00 C 703.12 235.81 819.67 345.74 819.38 500.79 C 819.09 655.84 702.07 798.25 558.42 818.44 Z" fill="url(#未命名的渐变_37-5)" fill-rule="nonzero" node-id="175" stroke="none" target-height="775.04004" target-width="670.95996" target-x="223.34" target-y="149.85"/></svg>