<svg t="1713408046048" class="icon" viewBox="0 0 1024 1024" version="1.1" xmlns="http://www.w3.org/2000/svg" p-id="6149" width="200" height="200"><path d="M900.071101 1017.274626v-62.883665c0-22.59223-16.665468-83.98407-66.114601-102.858898-73.569672-37.141577-151.554011-36.468634-204.071925-104.257484-21.38823-7.272647-33.744432 9.315798-56.336661 9.315798l-123.099882 0.004054c-22.588176 0-31.417509-18.623489-52.801685-11.346789-67.98749 87.044743-123.728232 63.734978-198.781621 102.11704C131.148845 882.779309 123.928899 931.802785 123.928899 954.395015v62.879611" fill="#FFFFFF" p-id="6150"></path><path d="M264.764472 466.158814l-15.988472-9.238775c-8.792849-5.083556-17.687044-27.643354-19.762627-50.146399L224.241965 355.078663c-2.079636-22.49899 6.186209-38.596917 18.372149-35.767315l22.150358 5.132203" fill="#FFEAD6" p-id="6151"></path><path d="M264.764472 466.158814l-15.988472-9.238775c-8.792849-5.083556-17.687044-27.643354-19.762627-50.146399L224.241965 355.078663c-2.079636-22.49899 6.186209-38.596917 18.372149-35.767315l22.150358 5.132203" fill="#FFEAD6" p-id="6152"></path><path d="M614.617693 748.956936c0 45.184459-36.975368 82.159827-82.167935 82.159827H491.525919c-45.184459 0-82.159827-36.96726-82.159827-82.159827v-149.936516c0-45.188513 36.971314-82.163881 82.159827-82.163881h40.923839c45.184459 0 82.171989 36.963206 82.171989 82.163881l-0.004054 149.936516z" fill="#FFEAD6" p-id="6153"></path><path d="M614.617693 767.766902c0 45.184459-36.975368 78.101901-82.167935 78.101901H491.525919c-45.184459 0-82.159827-32.909334-82.159827-78.101901v-168.750536c0-45.188513 36.971314-82.163881 82.159827-82.163881h40.923839c45.184459 0 82.171989 36.963206 82.171989 82.163881l-0.004054 168.750536z" fill="#FFEAD6" p-id="6154"></path><path d="M614.617693 599.016366c0-0.790505-0.097293-1.568849-0.113508-2.351246H468.301285L409.366092 632.404057v116.548825a81.523369 81.523369 0 0 0 13.653441 45.152028c11.638667-13.057522 38.361792-30.39188 98.188838-30.39188 47.774883 0 70.306305 16.004687 80.700433 28.839247 8.002344-12.664297 12.708889-27.598762 12.708889-43.599395v-149.936516z" fill="#D59758" opacity=".15" p-id="6155"></path><path d="M759.997656 466.158814s7.183461-4.159273 15.984418-9.238775c8.796903-5.083556 17.68299-27.643354 19.762627-50.146399L800.520162 355.078663c2.079636-22.49899-6.182155-38.596917-18.376202-35.767315l-22.146304 5.132203" fill="#FFEAD6" p-id="6156"></path><path d="M759.997656 466.158814s7.183461-4.159273 15.984418-9.238775c8.796903-5.083556 17.68299-27.643354 19.762627-50.146399L800.520162 355.078663c2.079636-22.49899-6.182155-38.596917-18.376202-35.767315l-22.146304 5.132203" fill="#FFEAD6" p-id="6157"></path><path d="M759.219313 543.903974c0 25.656957-17.131664 58.7852-38.06586 73.626426l-132.241363 93.749848c-20.930142 14.841226-55.546156 18.769428-76.930332 18.769428-21.372014 0-55.992082-3.928202-76.922225-18.769428l-132.245417-93.749848c-20.934196-14.841226-38.057752-47.969469-38.057752-73.626426V169.176193c0-25.656957 20.99095-46.643853 46.647907-46.643853h401.159027c25.652903 0 46.647907 20.986896 46.647907 46.643853l0.008108 374.727781z" fill="#FFEAD6" p-id="6158"></path><path d="M721.153453 568.892042l-132.241363 93.749847c-20.930142 14.841226-55.546156 18.769428-76.930332 18.769429-21.36796 0-55.992082-3.928202-76.926279-18.769429l-132.241363-93.749847c-38.057752-24.97996-38.057752-109.223478-38.057752-134.880435v109.900475c0 25.656957 17.123556 58.7852 38.057752 73.626426l132.241363 93.749847c20.934196 14.841226 55.55021 18.769428 76.926279 18.769429s55.996136-3.928202 76.930332-18.769429l132.241363-93.749847c20.934196-14.841226 38.061806-47.969469 38.061806-73.626426v-91.65805c0 25.644795 0 91.649942-38.061806 116.63801zM264.764472 342.787322s84.154332-26.350169 102.396757-137.831653c0 0 168.235695 66.888891 324.309772 28.377105 0 0 68.526655-6.311879 68.526655 91.098615 0 0 41.313011-40.425213 20.658533-103.260232s-447.952874-101.346804-447.952874-101.346804-67.938844 166.208759-67.938843 222.962969z" fill="#D59758" opacity=".15" p-id="6159"></path><path d="M242.614114 319.299187h22.150358c64.152527-24.935368 75.511477-157.813189 75.511476-157.813189C454.530281 221.013056 633.306044 213.517447 701.767837 213.517447c68.469901 0 58.221712 110.901781 58.221712 110.90178 76.683046-35.76326 49.238331-275.193058-164.372355-310.798217-213.606632-35.592998-258.596505 66.26054-258.596505 66.260541-78.097847-38.390169-100.815747 47.381658-100.815747 47.381658s-35.592998 84.202979 6.409172 192.035978z" fill="#E4BC96" p-id="6160"></path><path d="M227.918828 394.944441s7.418586 39.059058 36.845644 39.059059v32.159367c0-0.004054-36.845644-11.626505-36.845644-71.218426zM797.179772 394.944441s-7.418586 39.059058-36.849698 39.059059v32.159367c0-0.004054 36.849698-11.626505 36.849698-71.218426z" fill="#D59758" opacity=".15" p-id="6161"></path><path d="M358.040016 783.674297l78.037039 156.045701 77.023571-82.090911 74.996635 82.090911 83.169242-154.193082-7.76722-4.633576-95.671383 50.385577H465.467628l-99.482022-54.370533z" fill="#D59758" opacity=".2" p-id="6162"></path><path d="M637.757195 179.618968c-148.047411 30.152701-303.026944-41.55219-303.026944-41.55219-2.294492 105.400676-104.861511 140.191007-104.861511 140.191007a304.202567 304.202567 0 0 0 12.749428 41.041402h22.150357c64.152527-24.935368 75.511477-157.813189 75.511477-157.813189 114.254333 59.527059 293.026041 52.031449 361.491889 52.031449 68.473955 0 58.217658 110.905835 58.217658 110.905834 42.0346-59.032486 25.815058-174.957015-122.232354-144.804313z" fill="#A87846" opacity=".2" p-id="6163"></path><path d="M512.67497 879.442973m-36.48485 0a36.484849 36.484849 0 1 0 72.969699 0 36.484849 36.484849 0 1 0-72.969699 0Z" fill="#FF9999" p-id="6164"></path><path d="M443.876705 911.444239l-81.867948-130.550899 44.997981-45.002034 106.211451 106.21145z" fill="#FFFFFF" p-id="6165"></path><path d="M583.865019 913.868455l79.634264-132.975115-45.002034-45.002034-106.211451 106.21145z" fill="#FFFFFF" p-id="6166"></path><path d="M365.985606 776.908384L446.211736 875.871511l66.074062-33.768755-68.409093 69.341483-81.867948-130.550899zM512.285798 842.102756l66.690251 38.836095 84.523234-100.045511-79.634264 132.975115z" fill="#D59758" opacity=".15" p-id="6167"></path><path d="M477.544114 1016.540875l8.715825-115.879935h54.188109l16.823569 115.879935" fill="#FF9999" p-id="6168"></path><path d="M485.578888 909.697021s25.259677 24.984014 56.182614 0l-1.313454-9.036081H486.259939l-0.681051 9.036081z" fill="#E38888" p-id="6169"></path><path d="M900.071101 1017.274626v-62.883665c0-22.59223-16.665468-83.98407-66.114601-102.858898-56.028567-28.291974-122.512071-39.273913-170.46127-70.642776l-144.480004 236.385339-1.840458 0.640512-150.285149-239.60006c-54.92186 48.232971-104.573686 36.598358-168.037055 69.057712C131.148845 882.779309 123.928899 931.802785 123.928899 954.395015v62.879611" fill="#7D7F91" p-id="6170"></path><path d="M341.929928 796.646688v105.092582h46.428998v44.592593l128.82395 71.583275-150.285149-239.60006zM693.526315 796.646688v105.092582h-46.424944v44.592593l-128.078037 70.942763 144.475949-236.381286z" fill="#7D7F91" p-id="6171"></path><path d="M341.929928 796.646688l20.078829 82.796285h43.923705v56.75421l113.090872 81.077443-130.664408-70.942763v-44.592593H341.929928z" fill="#3F3F3F" opacity=".2" p-id="6172"></path><path d="M692.208806 796.646688l-20.078829 82.796285h-43.927758v56.75421l-109.178885 81.077443 126.756474-70.942763v-44.592593h46.428998z" fill="#3F3F3F" opacity=".2" p-id="6173"></path><path d="M517.182876 1017.915138l1.840458-0.640512h-2.241792l0.401334 0.640512z m316.773624-166.383075c-51.844971-26.175853-112.608461-37.575341-159.394199-63.970103 22.01658 23.893523 44.422331 48.224863 75.608769 63.970103 49.445079 18.874829 66.118655 80.266669 66.118655 102.858898v62.883665h83.781376v-62.883665c0-22.59223-16.665468-83.980016-66.114601-102.858898z" opacity=".1" p-id="6174"></path></svg>