<?xml version="1.0" standalone="no"?><!DOCTYPE svg PUBLIC "-//W3C//DTD SVG 1.1//EN" "http://www.w3.org/Graphics/SVG/1.1/DTD/svg11.dtd"><svg t="1715927486461" class="icon" viewBox="0 0 1024 1024" version="1.1" xmlns="http://www.w3.org/2000/svg" p-id="13125" xmlns:xlink="http://www.w3.org/1999/xlink" width="200" height="200"><path d="M871.8 484.3c-15.3 0-27.7-12.4-27.7-27.7V429c0-15.3 12.4-27.7 27.7-27.7 15.3 0 27.7 12.4 27.7 27.7v27.7c0 15.2-12.4 27.6-27.7 27.6z" fill="#13227a" p-id="13126"></path><path d="M844.1 809.5H179.9c-30.5 0-55.4-24.8-55.4-55.4V269.9c0-30.5 24.8-55.4 55.4-55.4h664.2c30.5 0 55.4 24.8 55.4 55.4v75.3c0 15.3-12.4 27.7-27.7 27.7-15.3 0-27.7-12.4-27.7-27.7v-75.3H179.9v484.3h664.2V537.4c0-15.3 12.4-27.7 27.7-27.7 15.3 0 27.7 12.4 27.7 27.7v216.8c0 30.5-24.9 55.3-55.4 55.3z" fill="#13227a" p-id="13127"></path><path d="M864.9 688.6H152.2c-15.3 0-27.7-12.4-27.7-27.7 0-15.3 12.4-27.7 27.7-27.7h712.6c15.3 0 27.7 12.4 27.7 27.7 0 15.3-12.3 27.7-27.6 27.7zM559 376.9c-5.3 0-10.6-2-14.7-6.1-8.1-8.1-8.1-21.2 0-29.4l23.7-23.7c8.1-8.1 21.2-8.1 29.4 0 8.1 8.1 8.1 21.2 0 29.4l-23.7 23.7c-4.1 4.1-9.4 6.1-14.7 6.1zM465 376.9c-5.3 0-10.6-2-14.7-6.1l-23.7-23.7c-8.1-8.1-8.1-21.2 0-29.4 8.1-8.1 21.2-8.1 29.4 0l23.7 23.7c8.1 8.1 8.1 21.2 0 29.4-4 4.1-9.3 6.1-14.7 6.1zM601.9 439.4H422.1c-11.5 0-20.8-9.3-20.8-20.8s9.3-20.8 20.8-20.8H602c11.5 0 20.8 9.3 20.8 20.8s-9.4 20.8-20.9 20.8zM601.9 522.5H422.1c-11.5 0-20.8-9.3-20.8-20.8s9.3-20.8 20.8-20.8H602c11.5 0 20.8 9.3 20.8 20.8-0.1 11.5-9.4 20.8-20.9 20.8z" fill="#13227a" p-id="13128"></path><path d="M512 595c-11.5 0-20.8-9.3-20.8-20.8V418.7c0-11.5 9.3-20.8 20.8-20.8s20.8 9.3 20.8 20.8v155.6c0 11.4-9.3 20.7-20.8 20.7z" fill="#13227a" p-id="13129"></path></svg>