<?xml version="1.0" standalone="no"?><!DOCTYPE svg PUBLIC "-//W3C//DTD SVG 1.1//EN" "http://www.w3.org/Graphics/SVG/1.1/DTD/svg11.dtd"><svg t="1715927339518" class="icon" viewBox="0 0 1185 1024" version="1.1" xmlns="http://www.w3.org/2000/svg" p-id="9819" xmlns:xlink="http://www.w3.org/1999/xlink" width="231.4453125" height="200"><path d="M418.977684 647.760842a37.995789 37.995789 0 0 1-50.768842-15.629474l-2.533053-5.551157L260.850526 394.725053a19.294316 19.294316 0 0 1 28.833685-23.65979l123.742315 88.764632a57.020632 57.020632 0 0 0 51.2 5.928421L1046.528 204.8C942.241684 80.949895 770.479158 0 576.080842 0 257.832421 0 0 216.495158 0 483.597474c0 145.731368 77.608421 276.911158 199.033263 365.514105a38.696421 38.696421 0 0 1 14.120421 43.870316l-25.977263 97.549473c-1.185684 4.581053-3.072 9.323789-3.072 14.120421 0 10.671158 8.569263 19.348211 19.186526 19.348211a21.557895 21.557895 0 0 0 11.102316-3.610947l126.113684-73.296842c9.431579-5.551158 19.509895-9.000421 30.558316-9.000422 5.928421 0 11.587368 0.916211 16.922948 2.586948 58.853053 17.030737 122.341053 26.516211 188.092631 26.51621 318.086737 0 575.973053-216.495158 575.973053-483.597473 0-80.896-23.767579-157.103158-65.589895-224.094316L423.181474 645.281684l-4.20379 2.479158z" fill="#1afa29" p-id="9820"></path></svg>